{
    "asset" : {
        "generator" : "Khronos glTF Blender I/O v1.6.16",
        "version" : "2.0"
    },
    "scene" : 0,
    "scenes" : [
        {
            "name" : "Scene",
            "nodes" : [
                0,
                1,
                2,
                3,
                5
            ]
        }
    ],
    "nodes" : [
        {
            "mesh" : 0,
            "name" : "base",
            "rotation" : [
                0.061362262815237045,
                0.7044392228126526,
                -0.7044393420219421,
                0.06136225536465645
            ],
            "translation" : [
                -41.27267074584961,
                0.21327972412109375,
                -2.0128958225250244
            ]
        },
        {
            "mesh" : 1,
            "name" : "camera",
            "rotation" : [
                0.11173887550830841,
                0.698222279548645,
                -0.6982223987579346,
                0.11173885315656662
            ],
            "translation" : [
                -25.356626510620117,
                4.251682281494141,
                1.0439692735671997
            ]
        },
        {
            "mesh" : 2,
            "name" : "socle",
            "rotation" : [
                0.061362262815237045,
                0.7044392228126526,
                -0.7044393420219421,
                0.06136225536465645
            ],
            "translation" : [
                -25.356624603271484,
                4.251682281494141,
                1.0439704656600952
            ]
        },
        {
            "mesh" : 3,
            "name" : "Plane",
            "rotation" : [
                0.06122467666864395,
                -0.06122467294335365,
                -0.7044512033462524,
                0.7044512629508972
            ],
            "scale" : [
                82.41194152832031,
                35.481388092041016,
                122.99948120117188
            ],
            "translation" : [
                -53.739925384521484,
                -12.45889663696289,
                69.562255859375
            ]
        },
        {
            "camera" : 0,
            "name" : "Camera_Orientation",
            "rotation" : [
                -0.7071067690849304,
                0,
                0,
                0.7071067690849304
            ]
        },
        {
            "children" : [
                4
            ],
            "name" : "Camera",
            "rotation" : [
                0.6918118000030518,
                -0.0012931509409099817,
                0.01992524228990078,
                0.7218018174171448
            ],
            "scale" : [
                7.212822914123535,
                7.212822914123535,
                7.212822914123535
            ],
            "translation" : [
                24.96306610107422,
                -10.087586402893066,
                226.86392211914062
            ]
        }
    ],
    "cameras" : [
        {
            "name" : "Camera",
            "perspective" : {
                "aspectRatio" : 1.7777777777777777,
                "yfov" : 0.39959652046304894,
                "zfar" : 1000,
                "znear" : 0.10000000149011612
            },
            "type" : "perspective"
        }
    ],
    "materials" : [
        {
            "doubleSided" : true,
            "name" : "Material__6",
            "pbrMetallicRoughness" : {
                "baseColorTexture" : {
                    "index" : 0
                },
                "metallicFactor" : 0,
                "roughnessFactor" : 0.5
            }
        }
    ],
    "meshes" : [
        {
            "name" : "Object001.004",
            "primitives" : [
                {
                    "attributes" : {
                        "POSITION" : 0,
                        "NORMAL" : 1,
                        "TEXCOORD_0" : 2
                    },
                    "indices" : 3,
                    "material" : 0
                }
            ]
        },
        {
            "name" : "Object001.001",
            "primitives" : [
                {
                    "attributes" : {
                        "POSITION" : 4,
                        "NORMAL" : 5,
                        "TEXCOORD_0" : 6
                    },
                    "indices" : 7,
                    "material" : 0
                }
            ]
        },
        {
            "name" : "Object001.006",
            "primitives" : [
                {
                    "attributes" : {
                        "POSITION" : 8,
                        "NORMAL" : 9,
                        "TEXCOORD_0" : 10
                    },
                    "indices" : 11,
                    "material" : 0
                }
            ]
        },
        {
            "name" : "Plane",
            "primitives" : [
                {
                    "attributes" : {
                        "POSITION" : 12,
                        "NORMAL" : 13,
                        "TEXCOORD_0" : 14
                    },
                    "indices" : 15
                }
            ]
        }
    ],
    "textures" : [
        {
            "sampler" : 0,
            "source" : 0
        }
    ],
    "images" : [
        {
            "bufferView" : 4,
            "mimeType" : "image/jpeg",
            "name" : "texture_camera"
        }
    ],
    "accessors" : [
        {
            "bufferView" : 0,
            "componentType" : 5126,
            "count" : 1254,
            "max" : [
                0.5813000202178955,
                6.456500053405762,
                6.203398704528809
            ],
            "min" : [
                -18.346200942993164,
                -6.456500053405762,
                -6.203401565551758
            ],
            "type" : "VEC3"
        },
        {
            "bufferView" : 1,
            "componentType" : 5126,
            "count" : 1254,
            "type" : "VEC3"
        },
        {
            "bufferView" : 2,
            "componentType" : 5126,
            "count" : 1254,
            "type" : "VEC2"
        },
        {
            "bufferView" : 3,
            "componentType" : 5123,
            "count" : 4338,
            "type" : "SCALAR"
        },
        {
            "bufferView" : 5,
            "componentType" : 5126,
            "count" : 1446,
            "max" : [
                12.248875617980957,
                13.77407455444336,
                1.4802017211914062
            ],
            "min" : [
                -16.17792510986328,
                -19.164024353027344,
                -15.232799530029297
            ],
            "type" : "VEC3"
        },
        {
            "bufferView" : 6,
            "componentType" : 5126,
            "count" : 1446,
            "type" : "VEC3"
        },
        {
            "bufferView" : 7,
            "componentType" : 5126,
            "count" : 1446,
            "type" : "VEC2"
        },
        {
            "bufferView" : 8,
            "componentType" : 5123,
            "count" : 3654,
            "type" : "SCALAR"
        },
        {
            "bufferView" : 9,
            "componentType" : 5126,
            "count" : 24,
            "max" : [
                4.1998748779296875,
                4.187374591827393,
                0.6574020385742188
            ],
            "min" : [
                -4.199826240539551,
                -4.1873250007629395,
                -0.6573982238769531
            ],
            "type" : "VEC3"
        },
        {
            "bufferView" : 10,
            "componentType" : 5126,
            "count" : 24,
            "type" : "VEC3"
        },
        {
            "bufferView" : 11,
            "componentType" : 5126,
            "count" : 24,
            "type" : "VEC2"
        },
        {
            "bufferView" : 12,
            "componentType" : 5123,
            "count" : 36,
            "type" : "SCALAR"
        },
        {
            "bufferView" : 13,
            "componentType" : 5126,
            "count" : 4,
            "max" : [
                1,
                0,
                1
            ],
            "min" : [
                -1,
                0,
                -1
            ],
            "type" : "VEC3"
        },
        {
            "bufferView" : 14,
            "componentType" : 5126,
            "count" : 4,
            "type" : "VEC3"
        },
        {
            "bufferView" : 15,
            "componentType" : 5126,
            "count" : 4,
            "type" : "VEC2"
        },
        {
            "bufferView" : 16,
            "componentType" : 5123,
            "count" : 6,
            "type" : "SCALAR"
        }
    ],
    "bufferViews" : [
        {
            "buffer" : 0,
            "byteLength" : 15048,
            "byteOffset" : 0
        },
        {
            "buffer" : 0,
            "byteLength" : 15048,
            "byteOffset" : 15048
        },
        {
            "buffer" : 0,
            "byteLength" : 10032,
            "byteOffset" : 30096
        },
        {
            "buffer" : 0,
            "byteLength" : 8676,
            "byteOffset" : 40128
        },
        {
            "buffer" : 0,
            "byteLength" : 7444,
            "byteOffset" : 48804
        },
        {
            "buffer" : 0,
            "byteLength" : 17352,
            "byteOffset" : 56248
        },
        {
            "buffer" : 0,
            "byteLength" : 17352,
            "byteOffset" : 73600
        },
        {
            "buffer" : 0,
            "byteLength" : 11568,
            "byteOffset" : 90952
        },
        {
            "buffer" : 0,
            "byteLength" : 7308,
            "byteOffset" : 102520
        },
        {
            "buffer" : 0,
            "byteLength" : 288,
            "byteOffset" : 109828
        },
        {
            "buffer" : 0,
            "byteLength" : 288,
            "byteOffset" : 110116
        },
        {
            "buffer" : 0,
            "byteLength" : 192,
            "byteOffset" : 110404
        },
        {
            "buffer" : 0,
            "byteLength" : 72,
            "byteOffset" : 110596
        },
        {
            "buffer" : 0,
            "byteLength" : 48,
            "byteOffset" : 110668
        },
        {
            "buffer" : 0,
            "byteLength" : 48,
            "byteOffset" : 110716
        },
        {
            "buffer" : 0,
            "byteLength" : 32,
            "byteOffset" : 110764
        },
        {
            "buffer" : 0,
            "byteLength" : 12,
            "byteOffset" : 110796
        }
    ],
    "samplers" : [
        {
            "magFilter" : 9729,
            "minFilter" : 9987
        }
    ],
    "buffers" : [
        {
            "byteLength" : 110808,
            "uri" : "data:application/octet-stream;base64,"
        }
    ]
}
