<?xml version="1.0" encoding="utf-8"?>
<!-- Generator: Adobe Illustrator 23.1.0, SVG Export Plug-In . SVG Version: 6.00 Build 0)  -->
<svg version="1.1" id="Calque_2" xmlns="http://www.w3.org/2000/svg" xmlns:xlink="http://www.w3.org/1999/xlink" x="0px" y="0px"
	 viewBox="0 0 226.8 226.8" style="enable-background:new 0 0 226.8 226.8;" xml:space="preserve">
<style type="text/css">
	.st0{fill:#35A0DA;}
	.st1{fill:#F1A720;}
	.st2{fill:#FFFFFF;}
	.st3{fill:#EE6325;}
</style>
<rect x="90.2" y="51.1" transform="matrix(0.7071 0.7071 -0.7071 0.7071 86.173 -97.0557)" class="st0" width="140.1" height="8.8"/>
<rect x="-3.1" y="51" transform="matrix(-0.7071 0.7071 -0.7071 -0.7071 153.6209 47.5505)" class="st0" width="140.1" height="9.1"/>
<path class="st1" d="M112.9,21.8l84.5,82.5c0.5,12.5-6.1,28.3-14,41.9c-1.3-4.7-4.7-14.8-8.2-15.3c-8.6,15.3-43.6,39.8-50.1,50.4
	h-23.1c-14.3-18.8-42.7-37.1-51.4-50.8c-5.8,3.9-5.2,7.8-7.9,14.9c-12.7-21.6-13.5-39.4-13.5-39.4L112.9,21.8z"/>
<rect x="89.8" y="85.1" class="st2" width="19.6" height="19.6"/>
<rect x="116.6" y="85.1" class="st2" width="19.6" height="19.6"/>
<rect x="90.2" y="111.4" class="st2" width="19.6" height="19.6"/>
<rect x="117" y="111.4" class="st2" width="19.6" height="19.6"/>
<polygon class="st0" points="184.2,75.3 157.4,53.3 157.4,21.8 184.2,21.8 "/>
<path class="st3" d="M13.9,108.7c-1.8,60.7,23.2,106.2,91.7,113.8c0,0,0.7-30.4-13.5-46c-15.6-18.9-27.8-21.3-41.6-39.6
	c-9.6,16.4,4.1,26.4,10.1,32.4c6,6,7.6,6.3,8.2,17.1c-13.2,0.5-26.2-7.8-33.1-26.2c-7.8-22.4-1.8-31.4-19-52.5
	C15.7,106.7,14,107.3,13.9,108.7z"/>
<path class="st3" d="M212.6,109.9c1.8,60.7-23.2,106.2-91.7,113.8c0,0-0.7-30.4,13.5-46c15.6-18.9,27.8-21.3,41.6-39.6
	c9.6,16.4-4.1,26.4-10.1,32.4c-6,6-7.6,6.3-8.2,17.1c13.2,0.5,26.2-7.8,33.1-26.2c7.8-22.4,1.8-31.4,19-52.5
	C210.8,107.9,212.6,108.5,212.6,109.9z"/>
</svg>
