<?xml version="1.0" encoding="utf-8"?>
<!-- Generator: Adobe Illustrator 23.1.0, SVG Export Plug-In . SVG Version: 6.00 Build 0)  -->
<svg version="1.1" id="Calque_2" xmlns="http://www.w3.org/2000/svg" xmlns:xlink="http://www.w3.org/1999/xlink" x="0px" y="0px"
	 viewBox="0 0 595.3 841.9" style="enable-background:new 0 0 595.3 841.9;" xml:space="preserve">
<style type="text/css">
	.st0{fill:#35A0DA;}
	.st1{fill:#F1A720;}
	.st2{fill:#FFFFFF;}
	.st3{fill:#EE6325;}
</style>
<rect x="290.6" y="329.8" transform="matrix(0.7071 0.7071 -0.7071 0.7071 340.9626 -155.0466)" class="st0" width="134.1" height="8.4"/>
<rect x="201.3" y="329.8" transform="matrix(-0.7071 0.7071 -0.7071 -0.7071 694.3544 380.6884)" class="st0" width="134.1" height="8.7"/>
<path class="st1" d="M312.3,301.8l80.9,79c0.4,11.9-5.9,27.1-13.4,40.2c-1.2-4.5-4.5-14.1-7.8-14.7c-8.2,14.7-41.7,38.1-47.9,48.3
	H302c-13.7-18-40.9-35.5-49.2-48.7c-5.5,3.7-5,7.5-7.6,14.2c-12.2-20.7-12.9-37.7-12.9-37.7L312.3,301.8z"/>
<rect x="290.2" y="362.4" class="st2" width="18.8" height="18.8"/>
<rect x="315.9" y="362.4" class="st2" width="18.8" height="18.8"/>
<rect x="290.5" y="387.6" class="st2" width="18.8" height="18.8"/>
<rect x="316.2" y="387.6" class="st2" width="18.8" height="18.8"/>
<polygon class="st0" points="380.6,353 354.9,332 354.9,301.8 380.6,301.8 "/>
<path class="st3" d="M217.5,385c-1.7,58.1,22.2,101.6,87.8,109c0,0,0.6-29.1-13-44.1c-14.9-18.1-26.6-20.4-39.8-37.9
	c-9.1,15.7,3.9,25.3,9.6,31c5.7,5.7,7.2,6.1,7.8,16.4c-12.6,0.5-25.1-7.5-31.7-25.1c-7.5-21.5-1.7-30.1-18.2-50.2
	C219.3,383,217.6,383.6,217.5,385z"/>
<path class="st3" d="M407.8,387.1c1.7,58.1-22.2,101.6-87.8,109c0,0-0.6-29.1,13-44.1c14.9-18.1,26.6-20.4,39.8-37.9
	c9.1,15.7-3.9,25.3-9.6,31s-7.2,6.1-7.8,16.4c12.6,0.5,25.1-7.5,31.7-25.1c7.5-21.5,1.7-30.1,18.2-50.2
	C406,385.2,407.7,385.8,407.8,387.1z"/>
</svg>
