<?xml version="1.0" encoding="utf-8"?>
<!-- Generator: Adobe Illustrator 23.1.0, SVG Export Plug-In . SVG Version: 6.00 Build 0)  -->
<svg version="1.1" id="VEC" xmlns="http://www.w3.org/2000/svg" xmlns:xlink="http://www.w3.org/1999/xlink" x="0px" y="0px"
	 viewBox="0 0 170.1 170.1" style="enable-background:new 0 0 170.1 170.1;" xml:space="preserve">
<g>
	<path d="M105.6,166.2c-6.6,0-11-1.8-15.1-4.3c-5-3.1-9.8-6.5-14.6-9.9c-12.9-9.3-23.4-21-34-32.8c-7.9-8.9-14.7-18.6-21-28.6
		c-5.7-9.1-10.3-18.7-13.6-29c-1.2-3.7-2-7.4-0.7-11c2.3-6.4,5.9-12,10.8-16.7c1.2-1.1,2.5-2.2,3.9-3.1c4.9-3,10.4-1.9,13.9,2.6
		c0.5,0.7,1,1.3,1.4,2.1c4.3,8.9,8.4,17.8,12.7,26.7c1.7,3.6,1.3,6.9-1,10c-5,6.9-6.6,11.9,1.3,20.9c7.2,8.2,14,16.8,21.1,25.1
		c1.7,2,4,3.6,6.2,5.1c2.6,1.7,5.6,1.7,8.5,0.9c0.9-0.3,1.9-0.5,2.8-1c5.4-3.3,10.3-2.4,15.3,1.3c6.8,5,14,9.5,20.9,14.3
		c4.1,2.9,6.8,6.6,5.5,11.9c-0.5,1.8-1.5,3.8-2.8,5C120.6,162,112.9,165.5,105.6,166.2z"/>
	<path d="M165.1,101.7c0,1,0.1,2,0,2.9c-0.4,2.3-2.4,3.8-4.7,3.7c-2.3-0.1-4.1-1.7-4.4-4.1c-0.3-3.3-0.3-6.6-0.7-9.9
		c-1.6-13.7-5.6-26.6-13.1-38.2c-8.3-12.8-18.5-23.9-31.8-31.6c-9.7-5.7-19.9-10-31-12.1c-2.3-0.4-4.4-1.2-4.9-3.9
		c-0.7-3.6,2.2-6.4,6-5.3c7,1.9,14,3.8,20.7,6.4c15.4,5.9,27.9,15.8,38.9,28.1c15.2,17.1,23,37.2,24.8,59.8c0.1,1.4,0.3,2.9,0.4,4.3
		C165.2,101.7,165.2,101.7,165.1,101.7z"/>
	<path d="M139.8,99.1c0.1,4.9-1.7,7.2-4.6,7.1c-2.4,0-4.3-1.9-4.5-4.7c-0.8-11.9-3.9-23.3-10.5-33.3c-3.3-5-7.1-9.9-11.5-13.9
		c-8.9-8.2-19.3-14.2-31.3-17c-0.8-0.2-1.6-0.4-2.4-0.7c-2.4-0.8-3.4-2.2-3.3-4.5c0.1-2.2,1.3-3.7,3.7-4.2c1.1-0.2,2.3-0.1,3.3,0.1
		c9.7,2.3,18.6,6.4,26.9,12c14.7,9.8,24.4,23.3,30.2,39.8C138.2,86.5,139.2,93.3,139.8,99.1z"/>
	<path d="M75.2,52.8c0.4,0.1,1.3,0.3,2.3,0.6c12.1,4.1,21.5,11.6,28.7,22.1c4.7,6.8,7.5,14.2,8.6,22.2c0.3,2.1,0,3.9-1.7,5.3
		c-1.8,1.4-3.8,1.3-5.5,0.1c-1-0.7-1.8-2.1-2.3-3.4c-1.5-4.7-2.3-9.7-4.4-14.2C95.6,74,86.5,66.1,74.2,62.2
		c-0.4-0.1-0.9-0.2-1.3-0.4c-2.5-0.9-3.8-3.1-3.3-5.4C70,54.1,72,52.7,75.2,52.8z"/>
</g>
</svg>
